<?xml version="1.0" encoding="utf-8"?>

<!-- License Agreement at http://iconmonstr.com/license/ -->

<!DOCTYPE svg PUBLIC "-//W3C//DTD SVG 1.1//EN" "http://www.w3.org/Graphics/SVG/1.1/DTD/svg11.dtd">
<svg version="1.1" xmlns="http://www.w3.org/2000/svg" xmlns:xlink="http://www.w3.org/1999/xlink" x="0px" y="0px"
	 width="512px" height="512px" viewBox="0 0 512 512" style="enable-background:new 0 0 512 512;" xml:space="preserve">
<path id="selection-10_1_" d="M238.833,462v-34.334h-68.667V462H238.833z M376.166,84.333h51.5v51.5H462V50h-85.834V84.333z
	 M50,341.834h34.333v-68.668H50V341.834z M50,238.833h34.333v-68.667H50V238.833z M84.333,135.833v-51.5h51.5V50H50v85.833H84.333z
	 M462,170.167h-34.334v68.667H462V170.167z M462,273.166h-34.334v68.668H462V273.166z M427.666,376.166v51.5h-51.5V462H462v-85.834
	H427.666z M135.833,427.666h-51.5v-51.5H50V462h85.833V427.666z M341.834,462v-34.334h-68.668V462H341.834z M238.833,84.333V50
	h-68.667v34.333H238.833z M341.834,84.333V50h-68.668v34.333H341.834z M341.834,273.166h-68.668v68.668h-34.333v-68.668h-68.667
	v-34.333h68.667v-68.667h34.333v68.667h68.668V273.166z"/>
</svg>
